<svg xmlns="http://www.w3.org/2000/svg" xmlns:xlink="http://www.w3.org/1999/xlink" 
	width="1000px" height="500px" viewBox="-100 250 1000 500" zoomAndPan="disable" preserveAspectRatio="none">

    <style type="text/css"><![CDATA[
		g
		{
			stroke: rgba(255,255,255,10);
			stroke-width: 1px;
		}
    ]]></style>

	<g transform="translate(0.000000,1300.000000) scale(0.100000,-0.100000)">
<path d="M5550 10534 c-79 -15 -175 -59 -250 -113 -116 -85 -259 -253 -346
-408 -16 -29 -35 -53 -41 -53 -7 0 -45 9 -85 20 -103 28 -267 50 -378 50 -227
0 -584 -62 -729 -128 -94 -42 -175 -106 -220 -173 -43 -64 -66 -129 -58 -160
3 -11 1 -17 -4 -13 -14 8 -11 -126 5 -208 38 -197 159 -434 353 -695 148 -198
270 -289 388 -287 114 1 231 70 297 173 54 87 25 110 -44 35 -145 -157 -315
-142 -491 45 -81 86 -135 163 -229 326 -155 266 -210 415 -212 565 -1 83 2
102 25 151 67 143 183 202 570 290 138 32 153 33 354 34 182 0 225 -3 320 -23
61 -13 136 -35 168 -49 71 -32 129 -95 147 -158 19 -68 8 -210 -28 -350 -39
-153 -53 -262 -36 -279 8 -8 9 -18 3 -27 -5 -8 -9 -33 -9 -57 0 -89 92 -133
159 -76 l31 26 10 -29 c6 -15 12 -33 14 -39 2 -6 -7 -9 -25 -6 -16 2 -35 -1
-43 -7 -10 -8 -23 -7 -52 5 -22 9 -52 14 -71 11 -31 -5 -33 -4 -33 22 0 36
-28 128 -47 158 -60 92 -276 57 -405 -66 -55 -51 -63 -85 -61 -243 2 -156 7
-172 78 -237 43 -39 159 -101 191 -101 19 0 18 -6 -5 -29 -26 -26 -36 -84 -22
-130 6 -21 31 -69 56 -106 25 -38 45 -75 45 -81 0 -7 -9 -33 -20 -59 -22 -50
-26 -95 -10 -95 6 0 25 14 43 31 61 59 121 77 171 54 34 -16 56 -50 56 -85 0
-41 42 -35 59 8 5 15 13 43 16 62 8 46 36 78 111 128 96 64 133 118 122 177
-3 14 -2 25 1 25 27 0 145 24 184 36 62 21 114 66 122 107 4 18 18 72 32 121
29 102 28 157 -6 247 -40 106 -127 163 -210 138 -78 -23 -121 -88 -141 -214
-25 -159 -47 -221 -89 -259 -25 -23 -28 -9 -10 44 9 25 9 34 -1 40 -19 12 -76
2 -120 -20 l-38 -19 -39 27 c-22 15 -52 37 -67 49 l-27 22 12 80 c6 45 13 81
15 81 11 0 60 -102 73 -154 14 -53 20 -61 42 -64 14 -2 50 6 80 18 45 17 61
31 97 81 53 75 53 96 2 143 -22 20 -40 37 -40 39 0 1 12 4 26 5 39 3 44 9 44
53 0 54 -38 126 -95 178 -46 42 -49 43 -102 39 l-56 -5 7 56 c3 31 20 110 37
176 41 159 49 293 23 366 -21 57 -74 118 -129 146 l-36 19 52 74 c77 112 121
166 217 264 113 115 207 181 295 208 67 20 72 20 122 4 121 -38 185 -166 215
-432 11 -98 32 -178 61 -235 32 -63 105 -110 124 -79 3 5 -5 31 -19 57 -35 70
-61 162 -97 340 -58 294 -129 386 -305 397 -38 2 -80 2 -94 0z m-338 -1384
c33 -26 65 -95 74 -159 8 -62 -6 -68 -29 -11 -13 34 -20 40 -44 40 -19 0 -38
-9 -53 -25 -41 -43 -89 -26 -104 37 -14 58 47 138 104 138 15 0 39 -9 52 -20z
m-350 -46 c68 -23 91 -52 96 -125 3 -33 -1 -93 -7 -132 -17 -108 -22 -247 -9
-289 12 -42 2 -63 -39 -79 -19 -7 -41 0 -106 32 -130 66 -192 112 -216 162
-18 37 -21 62 -21 174 0 128 1 132 27 164 29 34 172 109 208 109 12 0 42 -7
67 -16z m742 -156 c84 -69 107 -188 65 -337 -26 -94 -56 -149 -91 -167 -14 -7
-66 -20 -115 -28 -48 -9 -105 -18 -125 -22 -31 -5 -41 -2 -62 19 -35 35 -33
62 3 77 63 26 108 109 135 255 34 177 63 235 119 235 22 0 45 -11 71 -32z
m-481 -58 c30 -24 55 -26 63 -5 4 8 10 15 14 15 17 0 100 -83 100 -101 0 -36
-72 -120 -120 -141 -41 -18 -45 -18 -56 -3 -7 9 -15 39 -19 66 -4 30 -16 61
-31 78 -28 33 -42 69 -36 94 5 24 53 22 85 -3z m-70 -307 c31 -28 45 -34 66
-29 39 10 111 19 111 15 0 -2 -7 -26 -15 -52 -16 -53 -11 -98 14 -121 9 -8 39
-23 66 -33 42 -15 51 -23 53 -46 5 -41 -17 -68 -122 -152 -70 -55 -97 -84
-106 -110 l-12 -35 -31 24 c-38 29 -114 50 -157 44 -26 -4 -30 -2 -30 20 0 13
-21 57 -46 98 -39 63 -74 146 -74 176 0 22 51 58 81 58 52 0 110 22 127 48 14
22 14 29 0 84 l-16 60 26 -7 c14 -3 44 -22 65 -42z"/>
<path d="M8486 10239 c-93 -19 -219 -86 -308 -165 -81 -72 -183 -215 -210
-294 -3 -11 -9 -10 -29 3 -87 57 -341 82 -539 53 -119 -18 -294 -70 -415 -125
l-69 -32 21 -21 22 -21 78 35 c108 49 248 93 383 118 94 18 137 21 249 17 159
-5 225 -22 281 -73 98 -89 111 -222 48 -509 -10 -49 -22 -138 -25 -196 -6
-103 -5 -107 16 -114 12 -4 27 -2 34 3 9 8 12 -8 14 -65 1 -63 5 -79 24 -99
29 -31 62 -31 83 1 21 32 32 32 41 -2 24 -100 146 -94 132 6 -7 52 -51 149
-85 184 -34 35 -86 50 -134 37 -20 -6 -39 -17 -42 -25 -3 -8 -9 -15 -14 -15
-10 0 1 128 22 245 51 293 37 446 -49 539 -29 31 -30 36 -10 36 8 0 21 15 28
33 38 88 201 259 311 326 87 52 174 83 248 89 122 9 207 -52 259 -187 20 -50
23 -81 28 -276 6 -209 7 -222 31 -269 25 -50 53 -76 66 -63 6 6 -11 232 -36
483 -14 133 -52 223 -118 281 -63 54 -226 85 -336 62z m-311 -1311 c34 -26 85
-135 85 -180 l0 -32 -29 46 c-41 64 -80 72 -121 24 -19 -24 -30 -20 -45 18
-17 40 -7 87 27 123 27 29 48 29 83 1z"/>
<path d="M6046 9689 c-54 -13 -132 -53 -194 -102 -62 -47 -128 -121 -238 -267
-78 -102 -201 -236 -257 -278 -49 -36 -21 -44 43 -12 81 41 152 118 265 285
109 163 196 252 289 296 34 16 68 29 76 29 9 0 26 8 39 17 14 9 21 12 18 6 -4
-6 11 -8 42 -5 109 10 318 -64 456 -163 131 -93 287 -248 332 -329 25 -46 28
-60 28 -151 0 -85 -4 -111 -29 -178 -66 -181 -297 -469 -469 -586 -219 -149
-467 -157 -594 -19 -48 53 -64 82 -89 161 -16 52 -20 58 -43 55 -25 -3 -26 -6
-25 -68 3 -244 256 -385 546 -304 32 9 61 15 63 12 3 -3 6 -97 8 -209 2 -190
1 -206 -19 -239 -36 -63 -52 -63 -314 -6 -175 39 -308 96 -384 165 -16 14 -62
67 -102 116 -156 189 -169 205 -178 205 -18 0 3 -95 38 -165 89 -179 287 -293
671 -386 223 -53 268 -51 314 17 23 34 51 119 51 157 0 25 18 19 165 -55 191
-95 389 -235 715 -505 86 -70 227 -184 315 -252 88 -69 214 -170 280 -225 120
-100 517 -490 652 -640 87 -97 111 -96 57 2 -144 260 -454 545 -1014 933 -52
37 -100 75 -442 349 -301 243 -484 358 -674 426 l-51 18 -7 77 c-3 42 -13 99
-21 125 -8 27 -15 50 -15 52 0 1 25 -13 55 -33 73 -46 247 -133 371 -185 193
-81 220 -94 324 -157 58 -35 155 -98 215 -139 61 -42 117 -79 125 -83 33 -15
80 -46 80 -53 0 -5 -15 -8 -32 -8 -18 0 -40 -5 -48 -10 -13 -9 -12 -12 4 -25
94 -72 407 14 557 152 79 73 113 147 106 228 -3 33 -8 70 -12 82 -6 18 1 27
36 52 23 17 46 31 51 31 4 0 8 -55 8 -123 0 -212 -27 -271 -204 -452 -59 -61
-116 -127 -127 -147 -24 -47 -24 -90 -1 -111 24 -22 54 -23 46 -2 -4 8 -3 22
0 31 5 13 19 4 69 -42 35 -33 106 -84 157 -114 115 -67 179 -119 318 -260 136
-137 220 -210 244 -210 10 0 18 3 18 6 0 13 -131 162 -202 229 -128 123 -296
255 -517 409 l-71 49 23 40 c12 22 72 94 134 159 135 143 165 196 171 307 3
51 -2 98 -13 141 -29 114 -28 118 3 64 41 -68 117 -140 203 -191 63 -37 220
-95 336 -123 l42 -10 -49 -64 c-55 -74 -102 -189 -121 -296 -44 -265 35 -692
170 -915 l37 -60 -147 -145 c-119 -118 -152 -157 -178 -211 -51 -105 -42 -183
30 -243 71 -60 184 -112 339 -156 l94 -27 83 -164 c226 -447 410 -952 503
-1385 32 -147 74 -388 85 -490 6 -57 10 -65 57 -110 l50 -49 -7 50 c-19 144
-61 369 -96 523 -150 646 -332 1118 -609 1576 l-24 39 49 -6 c42 -6 52 -4 74
15 23 21 24 21 8 2 -17 -21 -17 -22 5 -28 13 -3 76 -9 140 -12 l117 -7 29 -36
c46 -59 47 -60 5 -55 -36 6 -139 29 -175 40 -12 3 -18 0 -18 -10 0 -26 74 -67
144 -79 162 -28 506 70 506 144 0 16 -40 4 -135 -38 -44 -20 -105 -43 -135
-50 l-55 -13 -45 48 -45 47 110 7 c205 12 253 24 192 47 -37 14 -235 30 -442
35 -287 8 -497 53 -684 148 -98 50 -126 81 -124 138 3 68 50 136 191 280 l132
135 48 -55 c156 -179 306 -270 447 -270 73 0 125 25 220 104 91 77 130 100
152 91 9 -3 24 2 35 11 18 17 17 18 -13 43 -63 53 -44 146 60 299 22 32 52 81
67 108 14 27 40 63 57 81 27 29 29 34 16 50 -13 17 -12 17 6 2 14 -11 28 -14
45 -8 46 13 124 9 160 -9 21 -10 42 -32 54 -55 17 -36 19 -37 37 -21 21 19 15
36 -23 70 -47 44 -187 68 -266 46 -40 -12 -102 -84 -148 -172 -24 -47 -54 -96
-66 -110 -66 -73 -108 -147 -108 -193 0 -12 9 -40 20 -62 11 -22 20 -40 20
-41 0 -1 -14 -5 -30 -9 -17 -4 -56 -26 -88 -49 -82 -62 -118 -78 -187 -83 -75
-6 -150 20 -232 81 -125 92 -205 192 -283 351 -102 211 -150 400 -157 626 -5
136 -3 166 16 240 56 222 191 361 402 415 138 35 679 28 906 -12 166 -29 321
-94 439 -185 99 -76 143 -175 123 -272 -16 -73 -33 -108 -116 -245 -71 -116
-122 -232 -123 -276 0 -17 4 -16 33 10 l32 29 -33 -36 c-35 -38 -37 -67 -6
-116 11 -18 11 -23 -1 -33 -21 -18 -18 -73 6 -114 22 -37 45 -50 93 -51 25 0
31 -5 38 -31 9 -35 22 -48 56 -58 17 -6 29 0 51 21 26 26 28 34 24 83 -6 75
-28 131 -64 166 -28 26 -37 29 -100 29 -46 0 -69 4 -69 12 0 27 62 184 103
258 118 216 136 254 146 301 19 92 -15 210 -83 292 -29 34 -32 42 -13 42 16 1
90 57 274 206 81 66 177 140 213 165 255 178 436 197 566 58 113 -121 146
-262 148 -644 2 -252 9 -301 42 -312 19 -6 26 35 31 192 6 175 -16 435 -48
559 -39 153 -112 259 -215 311 -75 38 -190 46 -281 20 -152 -44 -370 -194
-667 -460 -32 -28 -96 -75 -103 -75 -4 0 -29 15 -54 33 -118 84 -302 145 -518
172 -143 17 -423 35 -565 35 l-106 0 0 93 c-1 54 -7 108 -15 132 -18 48 -29
36 140 140 141 86 290 208 364 297 28 34 73 105 99 156 43 87 46 100 50 186 7
158 -37 263 -168 399 -125 132 -314 246 -474 287 -136 34 -242 22 -351 -41
-71 -41 -119 -88 -228 -219 -114 -139 -122 -146 -218 -201 -129 -75 -169 -121
-169 -194 0 -31 3 -36 21 -33 15 2 27 17 40 52 22 58 58 98 119 133 147 84
195 126 271 240 71 105 128 159 206 195 90 42 179 48 288 19 44 -12 85 -23 90
-25 6 -1 37 -16 70 -33 145 -75 309 -217 386 -333 129 -195 76 -415 -156 -645
-92 -92 -212 -173 -440 -302 -204 -114 -225 -123 -289 -130 -65 -7 -116 9
-164 51 -44 38 -69 93 -88 193 -8 43 -19 82 -24 87 -7 7 -1 19 15 36 21 22 26
39 31 106 4 43 15 102 26 129 10 28 21 77 24 110 7 75 -14 117 -77 160 -39 26
-53 30 -114 30 -61 0 -75 -4 -102 -25 -48 -39 -85 -102 -158 -272 -61 -144
-85 -184 -85 -143 0 24 -43 35 -85 22 -33 -10 -43 -8 -94 18 -76 39 -85 46
-70 56 10 6 10 14 -1 36 -11 21 -15 75 -16 208 -1 164 -3 185 -24 233 -42 97
-128 145 -218 122 -90 -22 -149 -65 -172 -125 -7 -16 -15 -69 -20 -118 -6 -64
-17 -105 -40 -156 l-32 -69 16 -50 c35 -105 103 -180 211 -232 61 -29 145 -49
145 -33 0 4 -37 26 -82 48 -135 66 -228 174 -228 265 0 19 10 55 21 80 14 30
24 80 29 147 5 56 16 115 24 131 49 96 209 100 294 9 35 -37 43 -88 30 -207
-12 -122 -7 -182 21 -246 19 -41 19 -45 3 -43 -45 4 -51 0 -50 -33 4 -78 -3
-137 -18 -152 -9 -10 -33 -16 -62 -16 -60 0 -130 -34 -138 -66 -11 -43 4 -82
71 -186 67 -105 83 -162 50 -174 -8 -4 -15 -13 -15 -21 0 -13 8 -14 43 -9 144
24 167 19 167 -35 0 -39 33 -39 55 -1 16 26 16 26 12 -34 -12 -163 -134 -283
-324 -320 -117 -22 -133 -20 -178 26 -22 22 -45 38 -52 36 -6 -3 -10 0 -8 7 5
15 -64 69 -176 137 -94 58 -460 240 -644 320 -66 28 -133 58 -150 65 -16 7
-61 25 -100 40 -108 40 -109 48 -15 105 93 56 164 110 243 188 l59 57 19 -25
c24 -32 24 -31 -10 -55 -48 -33 -120 -103 -151 -147 -54 -74 -36 -129 56 -176
58 -29 233 -79 369 -104 159 -29 401 -31 520 -4 97 22 239 76 228 87 -4 4 -40
1 -78 -6 -234 -45 -454 -56 -625 -31 -149 22 -323 62 -368 85 -79 40 -65 115
47 233 l58 62 51 -42 c93 -78 269 -140 368 -129 57 6 141 47 195 95 52 46 96
120 86 146 -10 25 -39 6 -127 -85 -89 -92 -126 -112 -200 -112 -104 1 -263 95
-377 224 l-22 25 59 79 c177 235 253 520 179 671 -28 59 -105 142 -208 224
-44 36 -75 67 -68 69 6 2 39 23 72 46 33 23 86 56 118 75 l59 33 -21 21 -21
21 -51 -29 c-82 -46 -167 -104 -181 -125 -13 -19 -17 -17 -93 35 -101 69 -183
109 -265 128 -80 19 -191 21 -209 4 -11 -10 -13 -10 -7 0 8 14 -2 14 -58 1z
m2571 -929 c50 -30 93 -96 93 -142 0 -21 -16 -79 -35 -128 -19 -49 -35 -98
-35 -107 0 -69 -42 -134 -111 -172 -58 -31 -185 -71 -196 -61 -4 4 -34 15 -65
24 -46 13 -59 22 -64 40 -8 34 -1 71 14 71 17 0 59 41 87 85 12 19 43 89 69
155 62 154 78 186 116 224 37 37 79 41 127 11z m-652 -339 c3 -6 31 -24 62
-42 44 -25 66 -32 104 -30 27 1 49 -2 49 -5 0 -4 -10 -34 -22 -66 -21 -59 -21
-59 -1 -85 11 -16 40 -33 68 -42 33 -11 54 -25 64 -42 13 -23 12 -30 -7 -70
-16 -34 -37 -55 -84 -84 -34 -22 -88 -59 -120 -83 l-58 -44 -26 21 c-29 22
-68 27 -107 12 -23 -9 -25 -7 -31 27 -3 20 -22 60 -41 87 -114 161 -129 196
-98 233 15 17 32 22 103 26 116 7 121 15 94 159 -6 35 -5 37 19 37 14 0 28 -4
32 -9z m658 -300 c7 -104 44 -200 96 -243 83 -71 214 -57 413 42 l97 48 10
-49 c15 -71 14 -189 -1 -193 -7 -2 -49 -10 -94 -18 -75 -15 -191 -62 -257
-105 -26 -17 -30 -17 -135 10 -254 67 -402 158 -468 288 l-24 48 36 22 c40 24
74 73 74 105 0 17 8 23 35 28 51 10 114 39 160 75 22 17 43 31 46 31 3 0 9
-40 12 -89z m1953 -1594 c24 -21 28 -34 34 -103 4 -48 3 -87 -3 -99 -9 -18
-11 -17 -21 13 -14 41 -31 52 -78 50 -28 -1 -41 4 -57 23 -43 52 -34 100 22
124 46 20 72 18 103 -8z"/>
<path d="M2077 9454 c-43 -15 -71 -35 -140 -101 -57 -54 -55 -70 2 -21 23 19
58 43 78 54 21 10 54 32 73 49 27 23 30 24 13 5 l-22 -25 48 3 c65 5 103 -16
146 -81 49 -73 79 -169 109 -343 15 -83 34 -176 42 -205 37 -123 108 -221 201
-276 56 -32 64 -26 14 13 -20 16 -53 47 -72 68 l-34 39 40 -7 c22 -4 121 -34
220 -66 263 -86 367 -104 600 -104 105 0 223 6 264 12 40 7 76 11 78 9 2 -3
-8 -26 -21 -53 -14 -27 -35 -80 -47 -119 l-22 -70 -138 0 -138 0 -46 45 c-25
24 -45 40 -45 35 0 -19 101 -144 160 -199 97 -89 172 -128 455 -237 216 -83
349 -166 440 -277 60 -72 109 -157 100 -173 -13 -20 -51 -27 -88 -16 -34 11
-37 15 -37 51 0 136 -132 232 -477 350 -324 109 -410 146 -538 232 -98 64
-166 128 -235 217 -28 37 -54 67 -56 67 -8 0 27 -75 56 -120 64 -99 219 -220
384 -300 45 -22 161 -61 261 -89 297 -83 395 -124 472 -198 45 -44 93 -131 93
-169 0 -18 -7 -22 -55 -27 -108 -11 -186 -82 -205 -189 -20 -106 21 -229 121
-364 49 -67 193 -219 233 -246 l31 -21 -36 39 c-126 138 -254 331 -289 434
-55 163 14 300 161 318 59 8 109 5 109 -6 0 -4 -20 -23 -44 -42 -69 -54 -99
-117 -104 -218 -5 -100 16 -173 86 -300 120 -215 316 -376 526 -431 110 -29
141 -28 177 8 24 25 29 38 29 79 0 94 -76 205 -275 402 -171 170 -214 258
-244 499 -6 46 -15 89 -21 96 -5 6 -26 44 -45 83 -26 52 -54 88 -105 134 -90
83 -155 118 -391 212 -107 43 -237 101 -289 128 -118 62 -230 142 -203 145 10
1 62 4 116 5 l97 4 0 -26 c0 -49 25 -68 133 -101 150 -46 252 -61 422 -61 211
0 321 23 508 106 62 28 73 54 21 48 -27 -3 -182 -38 -279 -62 -75 -19 -240
-40 -315 -40 -108 0 -264 26 -318 53 -65 32 -85 72 -78 157 4 60 14 93 51 175
17 39 36 108 30 113 -2 3 -20 -11 -38 -29 l-34 -34 -259 7 c-342 9 -441 23
-694 103 -80 25 -175 49 -212 52 -38 3 -72 11 -77 17 -23 29 -63 169 -86 303
-29 166 -56 266 -91 334 -64 127 -157 179 -257 143z m2343 -2098 c0 -56 33
-174 66 -240 50 -98 116 -177 227 -274 166 -144 247 -249 247 -319 0 -33 -31
-88 -58 -102 -24 -13 -53 -4 -161 45 -202 93 -372 262 -463 460 -25 56 -32 86
-36 157 -4 83 -3 91 28 153 22 46 46 76 82 104 58 47 68 49 68 16z"/>
<path d="M1755 9341 c-78 -22 -201 -94 -253 -150 -89 -95 -148 -238 -167 -402
-7 -61 15 -177 41 -216 18 -28 60 -32 49 -5 -4 9 -10 78 -13 152 -4 117 -1
147 17 220 32 125 63 183 130 251 98 98 206 132 296 95 40 -17 44 -8 13 28
-26 29 -68 39 -113 27z"/>
<path d="M1984 9327 c-23 -12 -49 -28 -58 -36 -19 -16 -16 -36 5 -36 19 0 57
-72 65 -122 16 -105 -64 -274 -182 -384 -51 -47 -86 -67 -224 -123 -113 -46
-177 -87 -165 -105 5 -9 89 22 138 49 10 6 40 19 67 30 43 17 48 17 43 3 -12
-32 78 -5 222 67 150 74 220 126 260 194 80 136 11 327 -131 362 -61 15 -94
49 -70 71 5 5 6 3 2 -4 -9 -17 -7 -16 39 7 83 42 151 18 199 -71 46 -83 47
-173 6 -380 -20 -99 -30 -178 -27 -202 5 -40 40 -87 64 -87 16 0 16 11 2 81
-9 46 -7 78 15 212 28 171 32 292 12 348 -44 124 -175 182 -282 126z m143
-202 c51 -90 16 -228 -83 -328 -47 -47 -141 -99 -229 -127 -22 -7 -57 -21 -78
-32 -56 -28 -56 -16 0 15 62 34 143 101 183 152 18 22 50 77 71 122 45 91 61
194 41 252 l-11 32 42 -23 c24 -14 51 -39 64 -63z"/>
<path d="M7991 8697 c-19 -19 -12 -65 19 -120 22 -39 30 -65 28 -96 -2 -52 17
-75 38 -46 21 28 12 71 -31 156 -20 39 -34 74 -30 77 3 3 27 0 53 -6 26 -7 61
-10 77 -7 26 6 34 1 67 -38 l37 -45 -21 -29 c-46 -61 -93 -103 -115 -103 -26
0 -31 -25 -7 -34 34 -13 128 64 168 138 l18 35 -58 55 c-59 55 -97 69 -120 46
-8 -8 -26 -5 -61 9 -38 15 -53 17 -62 8z"/>
<path d="M740 8568 c-19 -13 -35 -28 -37 -34 -6 -17 25 -26 47 -14 35 19 71
10 188 -49 144 -72 185 -79 486 -88 355 -9 543 27 719 137 47 30 56 39 44 48
-11 9 -25 6 -64 -13 -81 -39 -246 -93 -335 -110 -143 -27 -425 -40 -565 -26
-156 15 -210 32 -274 84 -90 74 -113 87 -145 87 -17 0 -46 -10 -64 -22z"/>
<path d="M620 8498 c-48 -33 -90 -89 -97 -131 -8 -52 30 -88 121 -112 64 -17
81 -18 232 -6 384 29 606 23 629 -16 6 -9 36 -45 68 -80 58 -63 87 -114 87
-151 0 -28 -35 -68 -70 -80 -28 -10 -31 -9 -45 18 -18 34 -81 70 -123 70 -16
0 -53 -12 -83 -27 -104 -53 -153 -189 -131 -363 6 -47 9 -97 6 -111 -3 -15 -2
-29 4 -33 5 -3 38 6 73 20 35 15 87 33 114 41 70 21 182 81 205 111 11 14 25
42 31 63 10 32 9 43 -8 78 l-20 40 33 11 c65 22 122 124 111 201 -3 23 -22 73
-41 110 -40 75 -45 113 -19 141 24 27 10 32 -22 7 -23 -19 -27 -27 -22 -61 3
-21 19 -67 35 -101 17 -35 33 -74 37 -89 9 -37 -12 -108 -43 -142 -31 -32 -91
-61 -103 -49 -19 20 -12 35 21 46 67 23 101 118 66 185 -8 15 -42 54 -76 87
-34 33 -70 78 -80 100 -15 32 -19 35 -19 17 -1 -19 -4 -21 -19 -13 -45 24
-192 32 -365 19 -259 -19 -393 -17 -440 6 -38 19 -67 59 -67 94 0 10 13 37 28
58 53 73 51 82 -8 42z m854 -523 c36 -17 86 -88 59 -84 -61 10 -123 -44 -220
-190 l-61 -93 -7 69 c-14 144 31 261 115 297 45 20 74 20 114 1z m71 -111 c14
-4 27 -25 43 -74 21 -62 22 -72 9 -102 -10 -23 -29 -42 -63 -60 -47 -26 -264
-102 -270 -95 -7 6 58 133 101 198 50 75 116 139 143 139 9 0 26 -3 37 -6z"/>
<path d="M2290 8390 c-19 -5 -97 -29 -172 -54 -154 -51 -240 -67 -345 -64 -81
3 -96 -10 -36 -30 66 -24 171 -11 330 41 267 86 382 86 658 -4 218 -70 305
-87 305 -60 0 21 -206 102 -375 147 -108 28 -298 41 -365 24z"/>
<path d="M4640 7520 c-58 -11 -120 -18 -137 -15 -33 6 -44 -6 -20 -22 6 -4 89
-8 182 -8 l170 0 62 -33 c96 -52 145 -126 173 -260 16 -77 10 -153 -26 -332
-32 -164 -38 -297 -12 -314 28 -17 36 1 63 130 91 438 25 740 -186 842 -65 32
-145 35 -269 12z"/>
<path d="M11540 6925 c-67 -19 -163 -73 -212 -119 -20 -19 -67 -72 -104 -118
-134 -165 -154 -181 -329 -272 -189 -99 -223 -126 -167 -134 12 -2 57 18 104
46 46 27 129 75 186 107 110 61 199 136 272 231 114 148 198 201 330 211 155
12 410 -97 600 -256 236 -198 370 -435 370 -653 0 -251 -166 -388 -675 -561
-121 -41 -263 -94 -315 -116 -195 -86 -327 -103 -428 -56 -111 52 -133 104
-147 349 -5 88 -12 105 -43 106 -19 0 -26 -28 -11 -48 13 -15 12 -16 -3 -3
-16 12 -19 10 -29 -15 -6 -16 -14 -59 -16 -95 -9 -113 41 -244 127 -329 55
-55 94 -70 192 -70 91 0 151 14 298 70 69 26 193 70 275 98 438 147 594 226
720 364 110 120 149 243 127 399 -25 173 -119 338 -296 515 -264 263 -609 409
-826 349z"/>
<path d="M10268 6533 c-23 -25 -28 -154 -8 -179 14 -17 14 -18 -2 -6 -20 16
-26 7 -64 -94 -30 -80 -32 -149 -5 -163 25 -14 31 -5 31 43 0 23 19 95 41 161
28 82 41 138 41 178 1 66 -10 86 -34 60z"/>
<path d="M10874 6300 c-48 -24 -151 -122 -193 -183 -15 -23 -50 -86 -76 -139
-26 -53 -61 -110 -78 -125 l-29 -28 16 32 c26 52 22 63 -25 63 -22 0 -47 6
-55 14 -10 10 -22 12 -42 7 -39 -12 -64 1 -103 51 -45 58 -59 67 -96 68 -38 0
-60 -32 -70 -106 -3 -28 -16 -57 -30 -73 l-23 -26 -18 24 c-51 70 -107 120
-173 155 l-71 38 -21 -21 -21 -20 58 -27 c34 -15 85 -52 124 -90 l66 -64 -52
0 c-100 0 -131 -67 -92 -202 19 -67 21 -85 11 -117 -6 -21 -18 -44 -26 -51
-25 -21 -6 -31 44 -24 59 8 74 -8 81 -85 4 -48 8 -56 27 -59 12 -2 34 5 48 14
18 12 53 19 108 21 l82 4 -25 -21 c-14 -11 -126 -70 -250 -131 -241 -119 -329
-174 -383 -242 -47 -57 -58 -95 -42 -134 12 -27 49 -52 61 -41 2 3 7 34 10 69
5 46 14 74 32 98 l25 34 23 -44 c84 -167 185 -453 299 -849 42 -146 89 -308
105 -360 70 -233 127 -501 150 -710 16 -138 15 -137 43 -114 20 18 20 17 -2
-8 -21 -25 -23 -32 -16 -100 6 -68 10 -76 48 -118 l42 -45 -43 40 -44 40 6
-35 c8 -49 23 -299 36 -595 14 -328 15 -335 45 -335 22 0 24 5 31 66 17 164
-11 798 -46 1043 -5 36 -10 70 -10 74 0 5 -6 5 -12 1 -10 -5 -10 -4 -2 5 28
30 -70 489 -187 881 -28 91 -58 194 -69 230 -11 36 -38 126 -61 200 -23 74
-50 164 -61 200 -32 103 -132 347 -187 458 l-51 102 56 36 c30 19 153 84 272
144 119 59 228 120 241 134 14 14 27 26 30 26 3 0 6 -39 7 -88 0 -69 5 -98 24
-142 83 -192 304 -383 625 -539 267 -131 435 -171 530 -126 69 33 161 193 211
365 47 164 34 360 -24 360 -25 0 -32 -18 -32 -88 0 -241 -80 -504 -171 -568
-53 -36 -132 -43 -215 -19 -67 19 -319 143 -409 200 -182 116 -322 256 -395
396 -35 67 -80 205 -80 244 0 6 16 19 35 28 45 21 122 92 142 130 21 41 11 68
-48 133 -51 56 -69 89 -69 125 0 16 5 19 19 14 28 -8 91 26 133 73 20 22 60
86 88 141 84 163 166 261 244 291 76 29 131 -101 87 -206 -29 -70 -41 -130
-34 -185 8 -69 -4 -114 -38 -149 -27 -27 -29 -33 -18 -48 13 -15 12 -16 -3 -4
-14 12 -27 10 -83 -9 -59 -20 -70 -21 -123 -9 -73 16 -132 24 -132 17 0 -4 5
-17 11 -30 28 -62 137 -67 272 -11 92 37 133 70 162 128 22 45 24 62 23 151
-2 87 1 106 21 144 29 56 30 114 2 169 -40 78 -116 102 -197 62z m-634 -315
c30 -48 81 -85 116 -85 17 0 34 -4 40 -9 5 -5 22 -11 38 -13 27 -3 28 -4 14
-19 -28 -28 -58 -83 -58 -107 0 -33 23 -71 69 -116 38 -37 58 -82 52 -116 -7
-40 -123 -128 -200 -151 -36 -11 -52 -10 -112 5 -57 15 -77 16 -113 7 -57 -14
-56 -14 -56 4 0 29 -31 76 -62 95 -30 18 -32 22 -29 72 1 29 -5 72 -13 95 -8
23 -18 62 -21 86 -6 38 -4 48 14 66 18 18 32 21 93 20 113 -2 148 22 148 99 0
15 5 44 11 65 13 48 40 49 69 2z"/>
<path d="M10360 6277 c0 -13 6 -29 13 -36 7 -8 7 -11 1 -8 -7 4 -14 -7 -18
-32 -3 -21 -17 -76 -30 -122 -25 -87 -23 -106 12 -94 37 11 64 105 60 208 -3
63 -1 85 7 75 20 -28 60 -48 93 -48 65 0 105 -79 71 -142 -9 -16 -7 -24 6 -37
15 -15 17 -14 35 9 58 77 4 191 -94 195 -40 2 -95 29 -96 48 0 4 -13 7 -30 7
-25 0 -30 -4 -30 -23z"/>
<path d="M9673 3308 c14 -41 29 -436 23 -603 -11 -287 -53 -638 -96 -793 -7
-27 -6 -34 7 -39 9 -3 23 -2 31 4 28 17 97 294 128 513 20 144 29 564 16 719
l-10 114 -53 51 c-28 28 -49 44 -46 34z"/>
</g>

</svg>