<?xml version="1.0" standalone="no"?>
<!DOCTYPE svg PUBLIC "-//W3C//DTD SVG 20010904//EN"
 "http://www.w3.org/TR/2001/REC-SVG-20010904/DTD/svg10.dtd">
<svg version="1.0" xmlns="http://www.w3.org/2000/svg"
 width="240.000000pt" height="240.000000pt" viewBox="0 0 240.000000 240.000000"
 preserveAspectRatio="xMidYMid meet">
<metadata>
Created by potrace 1.11, written by Peter Selinger 2001-2013
</metadata>
<g transform="translate(0.000000,240.000000) scale(0.100000,-0.100000)"
fill="#000000" stroke="none">
<path d="M1120 2144 c-174 -63 -261 -236 -216 -428 19 -81 80 -202 113 -223
21 -14 25 -14 47 1 32 21 76 78 76 100 0 9 -12 40 -27 69 -70 138 -58 246 36
301 60 35 138 15 184 -46 14 -18 22 -48 25 -86 7 -100 -55 -226 -186 -377
l-73 -85 41 -75 42 -75 28 23 c89 75 225 254 275 362 61 130 68 233 24 350
-55 148 -246 241 -389 189z"/>
<path d="M450 1651 c-53 -17 -107 -51 -147 -92 -66 -66 -78 -99 -78 -209 0
-81 4 -102 25 -143 32 -63 106 -132 178 -165 50 -23 70 -27 162 -27 97 0 210
16 240 35 9 6 4 23 -20 68 -45 84 -56 93 -105 82 -77 -18 -178 -12 -226 13
-116 61 -117 208 -2 259 52 23 98 21 159 -8 60 -28 172 -150 239 -259 33 -53
66 -100 74 -103 15 -6 149 13 159 22 21 22 -154 293 -253 392 -100 100 -178
137 -294 141 -47 1 -97 -1 -111 -6z"/>
<path d="M1762 1642 c-29 -11 -78 -36 -108 -57 -67 -46 -164 -151 -164 -177 0
-21 88 -68 129 -68 14 0 45 20 81 54 101 93 173 115 257 76 48 -21 83 -70 83
-115 0 -53 -40 -116 -89 -142 -84 -44 -255 -23 -431 52 -47 20 -93 34 -105 31
-11 -3 -42 -28 -70 -56 l-50 -51 25 -19 c35 -28 220 -104 315 -132 114 -32
276 -32 357 0 77 31 150 98 187 174 27 52 31 72 31 137 0 126 -58 219 -173
278 -70 36 -196 43 -275 15z"/>
<path d="M1295 1037 c-9 -14 -19 -72 -26 -151 -28 -295 34 -496 182 -595 170
-113 374 -65 466 112 24 45 28 63 28 142 0 82 -3 97 -33 157 -21 44 -51 84
-88 117 -56 51 -196 128 -244 133 -21 3 -25 -2 -31 -37 -5 -22 -8 -60 -8 -85
l-1 -46 65 -32 c35 -17 82 -48 104 -67 99 -90 87 -228 -23 -270 -40 -16 -52
-16 -89 -5 -57 17 -107 72 -132 145 -17 51 -20 87 -20 247 0 110 -4 191 -10
197 -6 5 -36 21 -67 35 l-58 26 -15 -23z"/>
<path d="M1035 1005 c-274 -57 -437 -152 -517 -299 -31 -57 -33 -67 -33 -156
0 -111 19 -164 82 -227 65 -65 123 -88 223 -88 71 0 94 4 140 26 141 66 223
214 232 419 l3 65 -45 -3 c-25 -2 -63 -12 -86 -21 -39 -18 -41 -20 -53 -88
-15 -86 -50 -163 -86 -191 -64 -51 -163 -48 -204 5 -81 102 -32 219 128 302
73 38 207 82 293 96 47 7 56 24 64 114 8 84 19 80 -141 46z"/>
</g>
</svg>
